<!-- <svg width="24" height="24" viewBox="0 0 24 24" fill="none" xmlns="http://www.w3.org/2000/svg">
<path d="M2 12.74L8.13 18.87" stroke="#3913B8" stroke-width="1.2" stroke-miterlimit="10" stroke-linecap="round" stroke-linejoin="round"/>
<path d="M8.13 18.87L22 5" stroke="#3913B8" stroke-width="1.2" stroke-miterlimit="10" stroke-linecap="round" stroke-linejoin="round"/>
</svg> -->
<svg width="24" height="24" viewBox="0 0 24 24" fill="none" xmlns="http://www.w3.org/2000/svg">
<path d="M20.4 4.62C19.34 3.54 17.95 3 16.54 3C15.15 3 13.75 3.54 12.68 4.62L12 5.31L11.32 4.62C10.25 3.54 8.85 3 7.45 3C6.05 3 4.66 3.54 3.6 4.62C1.47 6.8 1.47 10.3 3.6 12.46L12.01 21L19.72 13.16L20.4 12.47C22.53 10.3 22.53 6.8 20.4 4.62Z" fill="#B5CDFB" stroke="#3913B8" stroke-width="1.2" stroke-miterlimit="10" stroke-linecap="round" stroke-linejoin="round"/>
</svg>
